<svg xmlns="http://www.w3.org/2000/svg" width="86.093" height="86.426" viewBox="0 0 86.093 86.426">
  <g id="smart-contracts" transform="translate(-106.49 -229.235)">
    <path id="Path_673" data-name="Path 673" d="M262.366,316.126h-2.188a.7.7,0,0,0-.226-.113c-4.872-1.06-7.533-4.353-7.556-9.315v-1.985H206.5V229.723h12.134v20.727c0,1.173-.293,2.481.135,3.5s1.556,1.714,2.391,2.571c1.06,1.083,2.526,2.007,3.045,3.315.541,1.308.113,3,.158,4.511a.886.886,0,0,1-.632.992,8.138,8.138,0,0,0-4.962,8.864,8.208,8.208,0,1,0,10.645-9.134c0-2.255.023-4.488-.023-6.744a1.814,1.814,0,0,0-.474-1.15c-1.511-1.579-3.067-3.135-4.646-4.669a1.809,1.809,0,0,1-.586-1.4q.034-10.217.023-20.434v-.925H235.73c0,1.985-.023,3.924.023,5.864a1.01,1.01,0,0,1-.722,1.128,8.2,8.2,0,0,0-4.894,8.751,8.222,8.222,0,0,0,15.9,1.466,7.829,7.829,0,0,0-3.338-9.54,3.23,3.23,0,0,1-1.917-3.654c.113-1.331.023-2.684.023-4.015h12a2.88,2.88,0,0,1,.045.383c0,7.082,0,14.186-.023,21.268a1.583,1.583,0,0,1-.474.992c-1.556,1.6-3.158,3.135-4.691,4.736a2.034,2.034,0,0,0-.5,1.15c-.045,1.917-.045,3.834,0,5.729a1.241,1.241,0,0,1-.9,1.421,8.194,8.194,0,1,0,6.856,14.885,7.794,7.794,0,0,0,4.736-7.556,7.879,7.879,0,0,0-4.939-7.42,1.007,1.007,0,0,1-.722-1.105c.045-1.286-.023-2.594.045-3.879a1.888,1.888,0,0,1,.474-1.15c1.489-1.534,3-3.067,4.533-4.533a2.1,2.1,0,0,0,.677-1.624c-.023-7.465-.023-14.908-.023-22.373v-.97h12.2v76.863a9.04,9.04,0,0,1-.023,1.105,8.777,8.777,0,0,1-5.661,7.826A14.5,14.5,0,0,1,262.366,316.126ZM224.588,290.46v4.962h4.962V290.46Zm27.764,4.962V290.46h-4.984v4.962Zm-16.419-4.962c0,1.556-.023,3.022.023,4.488,0,.18.338.5.519.519,1.308.045,2.639.045,3.947,0,.18,0,.519-.271.519-.429.045-1.511.023-3.022.023-4.556C239.271,290.46,237.647,290.46,235.933,290.46Z" transform="translate(-77.524 -0.465)" fill="gray"/>
    <path id="Path_675" data-name="Path 675" d="M114.04,591.06c-.7-.226-1.4-.383-2.075-.677a8.841,8.841,0,0,1-5.165-5.616c.383-.023.677-.045.97-.045q30.82,0,61.617-.023c.722,0,1.015.18,1.173.925a12.616,12.616,0,0,0,2.278,4.849,3.369,3.369,0,0,1,.293.564Q143.63,591.071,114.04,591.06Z" transform="translate(-0.31 -275.399)" fill="gray"/>
    <path id="Path_679" data-name="Path 679" d="M286,413.459a3.18,3.18,0,1,1,3.135-3.225A3.22,3.22,0,0,1,286,413.459Z" transform="translate(-136.614 -137.853)" fill="gray"/>
    <path id="Path_680" data-name="Path 680" d="M390.138,410.357a3.169,3.169,0,1,1-3.18-3.158A3.2,3.2,0,0,1,390.138,410.357Z" transform="translate(-214.836 -137.931)" fill="gray"/>
    <path id="Path_681" data-name="Path 681" d="M333.5,283.258a3.146,3.146,0,1,1,3.135,3.18A3.138,3.138,0,0,1,333.5,283.258Z" transform="translate(-175.88 -39.498)" fill="gray"/>
  </g>
</svg>
